<svg xmlns="http://www.w3.org/2000/svg" xmlns:xlink="http://www.w3.org/1999/xlink" width="150" zoomAndPan="magnify" viewBox="0 0 112.5 30.000001" height="40" preserveAspectRatio="xMidYMid meet" version="1.2"><defs/><g id="c49f56756a"><g style="fill:#000000;fill-opacity:1;"><g transform="translate(28.444018, 17.128223)"><path style="stroke:none" d="M 1.5625 0 C 1.320312 0 1.140625 -0.0625 1.015625 -0.1875 C 0.890625 -0.3125 0.828125 -0.492188 0.828125 -0.734375 L 0.828125 -6.875 C 0.828125 -7.101562 0.890625 -7.28125 1.015625 -7.40625 C 1.140625 -7.53125 1.320312 -7.59375 1.5625 -7.59375 L 4.15625 -7.59375 C 4.6875 -7.59375 5.132812 -7.515625 5.5 -7.359375 C 5.875 -7.203125 6.160156 -6.976562 6.359375 -6.6875 C 6.554688 -6.394531 6.65625 -6.039062 6.65625 -5.625 C 6.65625 -5.164062 6.519531 -4.773438 6.25 -4.453125 C 5.988281 -4.140625 5.628906 -3.929688 5.171875 -3.828125 L 5.171875 -3.984375 C 5.703125 -3.910156 6.113281 -3.710938 6.40625 -3.390625 C 6.707031 -3.066406 6.859375 -2.644531 6.859375 -2.125 C 6.859375 -1.445312 6.628906 -0.921875 6.171875 -0.546875 C 5.710938 -0.179688 5.078125 0 4.265625 0 Z M 2.15625 -1.046875 L 4.09375 -1.046875 C 4.582031 -1.046875 4.941406 -1.140625 5.171875 -1.328125 C 5.398438 -1.523438 5.515625 -1.8125 5.515625 -2.1875 C 5.515625 -2.570312 5.398438 -2.859375 5.171875 -3.046875 C 4.941406 -3.234375 4.582031 -3.328125 4.09375 -3.328125 L 2.15625 -3.328125 Z M 2.15625 -4.375 L 3.90625 -4.375 C 4.382812 -4.375 4.738281 -4.460938 4.96875 -4.640625 C 5.207031 -4.828125 5.328125 -5.101562 5.328125 -5.46875 C 5.328125 -5.820312 5.207031 -6.09375 4.96875 -6.28125 C 4.738281 -6.46875 4.382812 -6.5625 3.90625 -6.5625 L 2.15625 -6.5625 Z M 2.15625 -4.375 "/></g></g><g style="fill:#000000;fill-opacity:1;"><g transform="translate(35.859697, 17.128223)"><path style="stroke:none" d="M 4.234375 0.109375 C 3.503906 0.109375 2.863281 -0.0507812 2.3125 -0.375 C 1.757812 -0.695312 1.332031 -1.148438 1.03125 -1.734375 C 0.726562 -2.328125 0.578125 -3.019531 0.578125 -3.8125 C 0.578125 -4.40625 0.660156 -4.941406 0.828125 -5.421875 C 1.003906 -5.898438 1.253906 -6.304688 1.578125 -6.640625 C 1.898438 -6.984375 2.285156 -7.242188 2.734375 -7.421875 C 3.179688 -7.609375 3.679688 -7.703125 4.234375 -7.703125 C 4.972656 -7.703125 5.613281 -7.539062 6.15625 -7.21875 C 6.707031 -6.90625 7.132812 -6.457031 7.4375 -5.875 C 7.738281 -5.289062 7.890625 -4.601562 7.890625 -3.8125 C 7.890625 -3.21875 7.800781 -2.679688 7.625 -2.203125 C 7.457031 -1.722656 7.210938 -1.304688 6.890625 -0.953125 C 6.578125 -0.609375 6.191406 -0.34375 5.734375 -0.15625 C 5.285156 0.0195312 4.785156 0.109375 4.234375 0.109375 Z M 4.234375 -1.078125 C 4.703125 -1.078125 5.097656 -1.179688 5.421875 -1.390625 C 5.753906 -1.609375 6.007812 -1.921875 6.1875 -2.328125 C 6.363281 -2.742188 6.453125 -3.238281 6.453125 -3.8125 C 6.453125 -4.664062 6.257812 -5.328125 5.875 -5.796875 C 5.488281 -6.273438 4.941406 -6.515625 4.234375 -6.515625 C 3.773438 -6.515625 3.378906 -6.410156 3.046875 -6.203125 C 2.722656 -5.992188 2.472656 -5.6875 2.296875 -5.28125 C 2.117188 -4.875 2.03125 -4.382812 2.03125 -3.8125 C 2.03125 -2.945312 2.222656 -2.273438 2.609375 -1.796875 C 2.992188 -1.316406 3.535156 -1.078125 4.234375 -1.078125 Z M 4.234375 -1.078125 "/></g></g><g style="fill:#000000;fill-opacity:1;"><g transform="translate(44.3209, 17.128223)"><path style="stroke:none" d="M 4.234375 0.109375 C 3.503906 0.109375 2.863281 -0.0507812 2.3125 -0.375 C 1.757812 -0.695312 1.332031 -1.148438 1.03125 -1.734375 C 0.726562 -2.328125 0.578125 -3.019531 0.578125 -3.8125 C 0.578125 -4.40625 0.660156 -4.941406 0.828125 -5.421875 C 1.003906 -5.898438 1.253906 -6.304688 1.578125 -6.640625 C 1.898438 -6.984375 2.285156 -7.242188 2.734375 -7.421875 C 3.179688 -7.609375 3.679688 -7.703125 4.234375 -7.703125 C 4.972656 -7.703125 5.613281 -7.539062 6.15625 -7.21875 C 6.707031 -6.90625 7.132812 -6.457031 7.4375 -5.875 C 7.738281 -5.289062 7.890625 -4.601562 7.890625 -3.8125 C 7.890625 -3.21875 7.800781 -2.679688 7.625 -2.203125 C 7.457031 -1.722656 7.210938 -1.304688 6.890625 -0.953125 C 6.578125 -0.609375 6.191406 -0.34375 5.734375 -0.15625 C 5.285156 0.0195312 4.785156 0.109375 4.234375 0.109375 Z M 4.234375 -1.078125 C 4.703125 -1.078125 5.097656 -1.179688 5.421875 -1.390625 C 5.753906 -1.609375 6.007812 -1.921875 6.1875 -2.328125 C 6.363281 -2.742188 6.453125 -3.238281 6.453125 -3.8125 C 6.453125 -4.664062 6.257812 -5.328125 5.875 -5.796875 C 5.488281 -6.273438 4.941406 -6.515625 4.234375 -6.515625 C 3.773438 -6.515625 3.378906 -6.410156 3.046875 -6.203125 C 2.722656 -5.992188 2.472656 -5.6875 2.296875 -5.28125 C 2.117188 -4.875 2.03125 -4.382812 2.03125 -3.8125 C 2.03125 -2.945312 2.222656 -2.273438 2.609375 -1.796875 C 2.992188 -1.316406 3.535156 -1.078125 4.234375 -1.078125 Z M 4.234375 -1.078125 "/></g></g><g style="fill:#000000;fill-opacity:1;"><g transform="translate(52.782103, 17.128223)"><path style="stroke:none" d="M 1.53125 0 C 1.3125 0 1.140625 -0.0625 1.015625 -0.1875 C 0.890625 -0.3125 0.828125 -0.488281 0.828125 -0.71875 L 0.828125 -6.9375 C 0.828125 -7.164062 0.882812 -7.335938 1 -7.453125 C 1.125 -7.578125 1.296875 -7.640625 1.515625 -7.640625 C 1.742188 -7.640625 1.914062 -7.578125 2.03125 -7.453125 C 2.144531 -7.335938 2.203125 -7.164062 2.203125 -6.9375 L 2.203125 -1.171875 L 5.34375 -1.171875 C 5.53125 -1.171875 5.675781 -1.117188 5.78125 -1.015625 C 5.882812 -0.921875 5.9375 -0.78125 5.9375 -0.59375 C 5.9375 -0.40625 5.882812 -0.257812 5.78125 -0.15625 C 5.675781 -0.0507812 5.53125 0 5.34375 0 Z M 1.53125 0 "/></g></g><g style="fill:#000000;fill-opacity:1;"><g transform="translate(58.839677, 17.128223)"><path style="stroke:none" d="M 1.5625 0 C 1.320312 0 1.140625 -0.0625 1.015625 -0.1875 C 0.890625 -0.3125 0.828125 -0.492188 0.828125 -0.734375 L 0.828125 -6.875 C 0.828125 -7.101562 0.890625 -7.28125 1.015625 -7.40625 C 1.140625 -7.53125 1.320312 -7.59375 1.5625 -7.59375 L 4.15625 -7.59375 C 4.6875 -7.59375 5.132812 -7.515625 5.5 -7.359375 C 5.875 -7.203125 6.160156 -6.976562 6.359375 -6.6875 C 6.554688 -6.394531 6.65625 -6.039062 6.65625 -5.625 C 6.65625 -5.164062 6.519531 -4.773438 6.25 -4.453125 C 5.988281 -4.140625 5.628906 -3.929688 5.171875 -3.828125 L 5.171875 -3.984375 C 5.703125 -3.910156 6.113281 -3.710938 6.40625 -3.390625 C 6.707031 -3.066406 6.859375 -2.644531 6.859375 -2.125 C 6.859375 -1.445312 6.628906 -0.921875 6.171875 -0.546875 C 5.710938 -0.179688 5.078125 0 4.265625 0 Z M 2.15625 -1.046875 L 4.09375 -1.046875 C 4.582031 -1.046875 4.941406 -1.140625 5.171875 -1.328125 C 5.398438 -1.523438 5.515625 -1.8125 5.515625 -2.1875 C 5.515625 -2.570312 5.398438 -2.859375 5.171875 -3.046875 C 4.941406 -3.234375 4.582031 -3.328125 4.09375 -3.328125 L 2.15625 -3.328125 Z M 2.15625 -4.375 L 3.90625 -4.375 C 4.382812 -4.375 4.738281 -4.460938 4.96875 -4.640625 C 5.207031 -4.828125 5.328125 -5.101562 5.328125 -5.46875 C 5.328125 -5.820312 5.207031 -6.09375 4.96875 -6.28125 C 4.738281 -6.46875 4.382812 -6.5625 3.90625 -6.5625 L 2.15625 -6.5625 Z M 2.15625 -4.375 "/></g></g><g style="fill:#000000;fill-opacity:1;"><g transform="translate(66.255358, 17.128223)"><path style="stroke:none" d="M 1.515625 0.09375 C 1.296875 0.09375 1.125 0.03125 1 -0.09375 C 0.882812 -0.226562 0.828125 -0.40625 0.828125 -0.625 L 0.828125 -6.96875 C 0.828125 -7.207031 0.882812 -7.382812 1 -7.5 C 1.125 -7.625 1.296875 -7.6875 1.515625 -7.6875 C 1.742188 -7.6875 1.914062 -7.625 2.03125 -7.5 C 2.144531 -7.382812 2.203125 -7.207031 2.203125 -6.96875 L 2.203125 -0.625 C 2.203125 -0.40625 2.144531 -0.226562 2.03125 -0.09375 C 1.914062 0.03125 1.742188 0.09375 1.515625 0.09375 Z M 1.515625 0.09375 "/></g></g><g style="fill:#000000;fill-opacity:1;"><g transform="translate(69.294922, 17.128223)"><path style="stroke:none" d="M 1.515625 0.09375 C 1.296875 0.09375 1.125 0.03125 1 -0.09375 C 0.882812 -0.226562 0.828125 -0.40625 0.828125 -0.625 L 0.828125 -6.984375 C 0.828125 -7.210938 0.882812 -7.382812 1 -7.5 C 1.125 -7.625 1.296875 -7.6875 1.515625 -7.6875 C 1.742188 -7.6875 1.914062 -7.625 2.03125 -7.5 C 2.144531 -7.382812 2.203125 -7.210938 2.203125 -6.984375 L 2.203125 -4.234375 L 2.234375 -4.234375 L 5.328125 -7.34375 C 5.441406 -7.457031 5.554688 -7.539062 5.671875 -7.59375 C 5.785156 -7.65625 5.914062 -7.6875 6.0625 -7.6875 C 6.269531 -7.6875 6.414062 -7.628906 6.5 -7.515625 C 6.59375 -7.410156 6.628906 -7.285156 6.609375 -7.140625 C 6.597656 -7.003906 6.53125 -6.875 6.40625 -6.75 L 3.25 -3.640625 L 3.265625 -4.265625 L 6.5625 -0.921875 C 6.707031 -0.773438 6.78125 -0.617188 6.78125 -0.453125 C 6.789062 -0.296875 6.742188 -0.164062 6.640625 -0.0625 C 6.535156 0.0390625 6.382812 0.09375 6.1875 0.09375 C 6.019531 0.09375 5.878906 0.0546875 5.765625 -0.015625 C 5.660156 -0.0859375 5.539062 -0.191406 5.40625 -0.328125 L 2.234375 -3.515625 L 2.203125 -3.515625 L 2.203125 -0.625 C 2.203125 -0.40625 2.144531 -0.226562 2.03125 -0.09375 C 1.914062 0.03125 1.742188 0.09375 1.515625 0.09375 Z M 1.515625 0.09375 "/></g></g><g style="fill:#000000;fill-opacity:1;"><g transform="translate(76.462695, 17.128223)"><path style="stroke:none" d="M 1.5625 0 C 1.320312 0 1.140625 -0.0625 1.015625 -0.1875 C 0.890625 -0.3125 0.828125 -0.492188 0.828125 -0.734375 L 0.828125 -6.875 C 0.828125 -7.101562 0.890625 -7.28125 1.015625 -7.40625 C 1.140625 -7.53125 1.320312 -7.59375 1.5625 -7.59375 L 5.40625 -7.59375 C 5.59375 -7.59375 5.734375 -7.546875 5.828125 -7.453125 C 5.921875 -7.367188 5.96875 -7.238281 5.96875 -7.0625 C 5.96875 -6.882812 5.921875 -6.742188 5.828125 -6.640625 C 5.734375 -6.546875 5.59375 -6.5 5.40625 -6.5 L 2.15625 -6.5 L 2.15625 -4.40625 L 5.171875 -4.40625 C 5.359375 -4.40625 5.5 -4.359375 5.59375 -4.265625 C 5.6875 -4.171875 5.734375 -4.035156 5.734375 -3.859375 C 5.734375 -3.679688 5.6875 -3.546875 5.59375 -3.453125 C 5.5 -3.359375 5.359375 -3.3125 5.171875 -3.3125 L 2.15625 -3.3125 L 2.15625 -1.09375 L 5.40625 -1.09375 C 5.59375 -1.09375 5.734375 -1.046875 5.828125 -0.953125 C 5.921875 -0.859375 5.96875 -0.722656 5.96875 -0.546875 C 5.96875 -0.367188 5.921875 -0.234375 5.828125 -0.140625 C 5.734375 -0.046875 5.59375 0 5.40625 0 Z M 1.5625 0 "/></g></g></g></svg>